<?xml version="1.0" standalone="no"?>
<!DOCTYPE svg PUBLIC "-//W3C//DTD SVG 20010904//EN"
 "http://www.w3.org/TR/2001/REC-SVG-20010904/DTD/svg10.dtd">
<svg version="1.0" xmlns="http://www.w3.org/2000/svg"
 width="260.000000pt" height="260.000000pt" viewBox="0 0 260.000000 260.000000"
 preserveAspectRatio="xMidYMid meet">
<metadata>
Created by potrace 1.11, written by Peter Selinger 2001-2013
</metadata>
<g transform="translate(0.000000,260.000000) scale(0.100000,-0.100000)"
fill="#000000" stroke="none">
<path d="M1020 1780 l0 -260 -250 0 c-216 0 -250 -2 -250 -15 0 -13 34 -15
250 -15 l250 0 0 -255 0 -255 -235 0 c-202 0 -235 -2 -235 -15 0 -13 33 -15
235 -15 l235 0 0 -235 c0 -202 2 -235 15 -235 13 0 15 33 15 235 l0 235 245 0
245 0 0 -235 c0 -202 2 -235 15 -235 13 0 15 33 15 235 l0 235 270 0 c233 0
270 2 270 15 0 13 -37 15 -270 15 l-270 0 0 255 0 255 255 0 c220 0 255 2 255
15 0 13 -35 15 -255 15 l-255 0 0 260 c0 224 -2 260 -15 260 -13 0 -15 -36
-15 -260 l0 -260 -245 0 -245 0 0 260 c0 224 -2 260 -15 260 -13 0 -15 -36
-15 -260z m520 -545 l0 -255 -245 0 -245 0 0 255 0 255 245 0 245 0 0 -255z"/>
<path d="M1217 1320 l83 -85 -80 -83 -80 -82 82 80 83 80 85 -83 85 -82 -82
85 -83 85 80 83 80 82 -82 -80 -83 -80 -85 83 -85 82 82 -85z"/>
<path d="M687 1860 l83 -85 -80 -83 -80 -82 82 80 83 80 85 -83 85 -82 -82 85
-83 85 80 83 80 82 -82 -80 -83 -80 -85 83 -85 82 82 -85z"/>
<path d="M1757 740 l83 -85 -80 -83 -80 -82 82 80 83 80 85 -83 85 -82 -82 85
-83 85 80 83 80 82 -82 -80 -83 -80 -85 83 -85 82 82 -85z"/>
</g>
</svg>
